<?xml version="1.0" encoding="utf-8"?>
<svg version="1.1" id="Layer_1" xmlns="http://www.w3.org/2000/svg" xmlns:xlink="http://www.w3.org/1999/xlink" x="0px" y="0px"
	 width="20px" height="20px" viewBox="0 0 20 20" enable-background="new 0 0 20 20" xml:space="preserve">
<g>
	<path d="M4.789,14.375H4.055c-0.19,0-0.343,0.156-0.343,0.345c0,0.189,0.153,0.343,0.343,0.343h0.734
		c0.19,0,0.344-0.153,0.344-0.343C5.133,14.531,4.979,14.375,4.789,14.375z"/>
	<path d="M18.7,2.885H1.301c-0.258,0-0.468,0.209-0.468,0.467v11.242c0,0.259,0.21,0.47,0.468,0.47h1.742
		c0.188,0,0.343-0.154,0.343-0.343c0-0.189-0.154-0.344-0.343-0.344H1.52V3.572h16.962v10.803h-2.906l-0.001,2.124l-4.253-2.124
		H5.897c-0.19,0-0.343,0.156-0.343,0.345c0,0.189,0.153,0.343,0.343,0.343h5.259l5.104,2.545v-2.545h2.44
		c0.257,0,0.467-0.211,0.467-0.469V3.352C19.167,3.095,18.957,2.885,18.7,2.885z"/>
	<path d="M12.364,8.315c-0.029-0.094-0.11-0.162-0.207-0.176l-1.299-0.19l-0.583-1.179c-0.087-0.175-0.375-0.175-0.463,0L9.232,7.95
		L7.93,8.138C7.833,8.154,7.753,8.221,7.723,8.314C7.692,8.408,7.717,8.509,7.788,8.579l0.941,0.916l-0.221,1.296
		c-0.017,0.096,0.023,0.192,0.103,0.252l0.151,0.049l0.12-0.03l1.162-0.611l1.163,0.611c0.088,0.046,0.191,0.038,0.271-0.019
		c0.08-0.06,0.119-0.156,0.103-0.252l-0.224-1.296l0.94-0.916C12.37,8.509,12.396,8.408,12.364,8.315z M10.902,9.221
		c-0.061,0.059-0.088,0.145-0.074,0.228l0.158,0.917l-0.821-0.432l-0.12-0.03l-0.121,0.03l-0.821,0.432L9.26,9.449
		C9.275,9.366,9.246,9.28,9.186,9.221L8.521,8.575L9.44,8.441C9.523,8.429,9.597,8.375,9.635,8.3l0.41-0.833L10.457,8.3
		c0.037,0.076,0.11,0.13,0.194,0.141l0.917,0.134L10.902,9.221z"/>
	<path d="M16.531,8.792c-0.031-0.093-0.112-0.16-0.209-0.175l-1.019-0.148l-0.455-0.925C14.806,7.455,14.716,7.4,14.617,7.4
		s-0.188,0.055-0.23,0.144L13.93,8.468l-1.021,0.148c-0.098,0.015-0.178,0.083-0.207,0.175c-0.031,0.093-0.006,0.196,0.063,0.264
		l0.737,0.72l-0.173,1.016c-0.016,0.097,0.024,0.193,0.104,0.252l0.15,0.049l0.122-0.028l0.911-0.48l0.912,0.48
		c0.087,0.045,0.192,0.036,0.271-0.021c0.08-0.059,0.12-0.156,0.104-0.252l-0.175-1.016l0.738-0.72
		C16.536,8.988,16.562,8.885,16.531,8.792z M15.271,9.5c-0.062,0.059-0.088,0.144-0.072,0.229l0.108,0.636l-0.57-0.3
		c-0.075-0.041-0.165-0.041-0.241,0l-0.569,0.3l0.108-0.637C14.049,9.644,14.02,9.559,13.96,9.5l-0.461-0.449l0.638-0.093
		c0.084-0.012,0.157-0.063,0.194-0.141l0.286-0.578l0.285,0.578c0.035,0.076,0.108,0.129,0.193,0.141l0.638,0.093L15.271,9.5z"/>
	<path d="M6.656,11.044c0.08-0.059,0.118-0.156,0.102-0.253L6.583,9.776l0.739-0.72c0.07-0.068,0.096-0.17,0.065-0.264
		c-0.03-0.093-0.11-0.16-0.208-0.175l-1.02-0.148L5.704,7.544C5.66,7.457,5.57,7.401,5.473,7.401c-0.098,0-0.188,0.056-0.23,0.143
		L4.786,8.469l-1.02,0.148C3.668,8.632,3.587,8.7,3.558,8.792c-0.03,0.094-0.005,0.196,0.065,0.264l0.738,0.72l-0.174,1.015
		c-0.016,0.098,0.023,0.194,0.103,0.253l0.15,0.049l0.119-0.029l0.913-0.479l0.913,0.479C6.471,11.108,6.578,11.102,6.656,11.044z
		 M5.592,10.065c-0.075-0.041-0.164-0.041-0.24,0l-0.572,0.3L4.89,9.729C4.905,9.644,4.876,9.559,4.816,9.5l-0.46-0.449l0.637-0.093
		c0.084-0.012,0.156-0.063,0.194-0.141l0.286-0.578l0.286,0.578c0.037,0.076,0.109,0.129,0.193,0.141L6.59,9.051L6.129,9.5
		C6.068,9.559,6.04,9.644,6.055,9.729l0.109,0.636L5.592,10.065z"/>
</g>
</svg>
