<?xml version="1.0" encoding="utf-8"?>
<svg version="1.1" id="Layer_1" xmlns="http://www.w3.org/2000/svg" xmlns:xlink="http://www.w3.org/1999/xlink" x="0px" y="0px"
	 width="20px" height="20px" viewBox="0 0 20 20" enable-background="new 0 0 20 20" xml:space="preserve">
<g>
	<path d="M13.432,15.183h-0.942c-0.203,0-0.368,0.164-0.368,0.368c0,0.203,0.165,0.368,0.368,0.368h0.942
		c0.203,0,0.368-0.165,0.368-0.368C13.8,15.347,13.635,15.183,13.432,15.183z"/>
	<path d="M18.405,4.402H1.596c-0.774,0-1.405,0.628-1.405,1.403v8.793c0,0.775,0.631,1.405,1.405,1.405h9.942
		c0.203,0,0.368-0.165,0.368-0.368s-0.165-0.368-0.368-0.368H1.596c-0.369,0-0.668-0.3-0.668-0.669V5.805
		c0-0.368,0.299-0.668,0.668-0.668h16.809c0.367,0,0.668,0.3,0.668,0.668v8.793c0,0.369-0.301,0.669-0.668,0.669h-3.978
		c-0.202,0-0.368,0.165-0.368,0.368s0.166,0.368,0.368,0.368h3.978c0.774,0,1.404-0.63,1.404-1.405V5.805
		C19.81,5.031,19.18,4.402,18.405,4.402z"/>
	<path d="M3.523,13.121h6.128c0-1.164-0.65-2.178-1.607-2.696c0.28-0.333,0.457-0.757,0.457-1.229c0-1.058-0.858-1.914-1.915-1.914
		c-1.057,0-1.913,0.857-1.913,1.914c0,0.47,0.176,0.896,0.457,1.229C4.174,10.943,3.523,11.957,3.523,13.121z"/>
	<path d="M11.35,8.516h4.944c0.203,0,0.367-0.166,0.367-0.367c0-0.204-0.164-0.369-0.367-0.369H11.35
		c-0.204,0-0.368,0.165-0.368,0.369C10.981,8.35,11.145,8.516,11.35,8.516z"/>
	<path d="M11.35,10.657h4.944c0.203,0,0.367-0.166,0.367-0.369c0-0.204-0.164-0.369-0.367-0.369H11.35
		c-0.204,0-0.368,0.166-0.368,0.369C10.981,10.491,11.145,10.657,11.35,10.657z"/>
	<path d="M11.35,12.798h4.944c0.203,0,0.367-0.163,0.367-0.368c0-0.202-0.164-0.368-0.367-0.368H11.35
		c-0.204,0-0.368,0.166-0.368,0.368C10.981,12.635,11.145,12.798,11.35,12.798z"/>
</g>
</svg>
